<!-- Generated by IcoMoon.io -->
<svg version="1.1" xmlns="http://www.w3.org/2000/svg" width="32" height="32" viewBox="0 0 32 32">
<title>book</title>
<path d="M27.508 7.601c-1.246-0.096-2.657-0.379-4.192-0.841-1.844-0.556-3.634-0.47-5.321 0.255-0.238 0.102-0.348 0.378-0.246 0.616s0.378 0.348 0.616 0.246c1.478-0.635 3.053-0.709 4.68-0.219 1.6 0.482 3.077 0.778 4.39 0.879 0.012 0.001 0.024 0.001 0.036 0.001 0.243 0 0.448-0.187 0.467-0.433 0.020-0.258-0.173-0.483-0.431-0.503z"></path>
<path d="M27.508 9.593c-1.246-0.096-2.656-0.379-4.192-0.841-1.844-0.556-3.634-0.47-5.321 0.255-0.238 0.102-0.348 0.378-0.246 0.616s0.378 0.348 0.616 0.246c1.478-0.635 3.053-0.709 4.68-0.219 1.6 0.482 3.077 0.778 4.39 0.879 0.012 0.001 0.024 0.001 0.036 0.001 0.243 0 0.448-0.187 0.467-0.433 0.020-0.258-0.173-0.483-0.432-0.503z"></path>
<path d="M27.508 19.555c-1.246-0.096-2.657-0.379-4.192-0.841-1.844-0.556-3.634-0.47-5.321 0.255-0.238 0.102-0.348 0.378-0.246 0.616s0.378 0.348 0.616 0.246c1.478-0.635 3.053-0.709 4.68-0.219 1.6 0.482 3.077 0.778 4.39 0.879 0.012 0.001 0.024 0.001 0.036 0.001 0.243 0 0.448-0.187 0.467-0.433 0.020-0.258-0.173-0.483-0.431-0.503z"></path>
<path d="M27.508 21.547c-1.246-0.096-2.657-0.379-4.192-0.841-1.844-0.556-3.634-0.47-5.321 0.255-0.238 0.102-0.348 0.378-0.246 0.616s0.378 0.348 0.616 0.246c1.478-0.635 3.053-0.709 4.68-0.219 1.6 0.482 3.077 0.778 4.39 0.878 0.012 0.001 0.024 0.001 0.036 0.001 0.243 0 0.448-0.187 0.467-0.433 0.020-0.258-0.173-0.483-0.431-0.503z"></path>
<path d="M27.508 11.586c-1.246-0.096-2.657-0.379-4.192-0.841-1.844-0.556-3.634-0.47-5.321 0.255-0.238 0.102-0.348 0.378-0.246 0.616s0.378 0.348 0.616 0.246c1.478-0.635 3.053-0.709 4.68-0.219 1.6 0.482 3.077 0.778 4.39 0.879 0.012 0.001 0.024 0.001 0.036 0.001 0.243 0 0.448-0.187 0.467-0.433 0.020-0.258-0.173-0.483-0.431-0.503z"></path>
<path d="M27.508 15.57c-1.246-0.096-2.656-0.379-4.192-0.841-1.844-0.556-3.634-0.47-5.321 0.255-0.238 0.102-0.348 0.378-0.246 0.616s0.378 0.348 0.616 0.246c1.478-0.635 3.053-0.709 4.68-0.219 1.6 0.482 3.077 0.778 4.39 0.879 0.012 0.001 0.024 0.001 0.036 0.001 0.243 0 0.448-0.187 0.467-0.433 0.020-0.258-0.173-0.483-0.432-0.503z"></path>
<path d="M27.508 13.578c-1.246-0.096-2.657-0.379-4.192-0.841-1.844-0.556-3.634-0.47-5.321 0.255-0.238 0.102-0.348 0.378-0.246 0.616s0.378 0.348 0.616 0.246c1.478-0.635 3.053-0.709 4.68-0.219 1.6 0.482 3.077 0.778 4.39 0.879 0.012 0.001 0.024 0.001 0.036 0.001 0.243 0 0.448-0.187 0.467-0.433 0.020-0.258-0.173-0.483-0.431-0.503z"></path>
<path d="M27.508 17.562c-1.246-0.096-2.656-0.379-4.192-0.841-1.844-0.556-3.634-0.47-5.321 0.255-0.238 0.102-0.348 0.378-0.246 0.616s0.378 0.348 0.616 0.246c1.478-0.635 3.053-0.709 4.68-0.219 1.6 0.482 3.077 0.778 4.39 0.879 0.012 0.001 0.024 0.001 0.036 0.001 0.243 0 0.448-0.187 0.467-0.433 0.020-0.258-0.173-0.483-0.432-0.503z"></path>
<path d="M4.528 8.537c0.012 0 0.024-0 0.036-0.001 1.314-0.101 2.791-0.396 4.39-0.878 1.627-0.49 3.202-0.417 4.68 0.219 0.238 0.102 0.514-0.008 0.616-0.246s-0.008-0.514-0.246-0.616c-1.687-0.725-3.477-0.811-5.321-0.255-1.535 0.463-2.945 0.746-4.192 0.841-0.258 0.020-0.451 0.245-0.431 0.503 0.019 0.246 0.224 0.433 0.467 0.433z"></path>
<path d="M4.528 10.53c0.012 0 0.024-0 0.036-0.001 1.313-0.101 2.79-0.396 4.39-0.879 1.627-0.49 3.202-0.417 4.68 0.219 0.238 0.102 0.514-0.008 0.616-0.246s-0.008-0.514-0.246-0.616c-1.687-0.725-3.477-0.811-5.321-0.255-1.535 0.463-2.946 0.746-4.192 0.841-0.258 0.020-0.451 0.245-0.431 0.503 0.019 0.246 0.224 0.433 0.467 0.433z"></path>
<path d="M4.528 20.491c0.012 0 0.024-0 0.036-0.001 1.314-0.101 2.791-0.396 4.39-0.879 1.627-0.491 3.202-0.417 4.68 0.219 0.238 0.102 0.514-0.008 0.616-0.246s-0.008-0.514-0.246-0.616c-1.687-0.725-3.477-0.811-5.321-0.255-1.535 0.463-2.945 0.746-4.192 0.841-0.258 0.020-0.451 0.245-0.431 0.503 0.019 0.246 0.224 0.433 0.467 0.433z"></path>
<path d="M4.528 22.483c0.012 0 0.024-0 0.036-0.001 1.314-0.101 2.791-0.396 4.39-0.878 1.627-0.49 3.202-0.417 4.68 0.219 0.238 0.102 0.514-0.008 0.616-0.246s-0.008-0.514-0.246-0.616c-1.687-0.725-3.477-0.811-5.321-0.255-1.535 0.463-2.945 0.746-4.192 0.841-0.258 0.020-0.451 0.245-0.431 0.503 0.019 0.246 0.224 0.433 0.467 0.433z"></path>
<path d="M4.528 12.522c0.012 0 0.024-0 0.036-0.001 1.314-0.101 2.791-0.396 4.39-0.879 1.627-0.49 3.202-0.417 4.68 0.219 0.238 0.102 0.514-0.008 0.616-0.246s-0.008-0.514-0.246-0.616c-1.687-0.725-3.477-0.811-5.321-0.255-1.535 0.463-2.945 0.746-4.192 0.841-0.258 0.020-0.451 0.245-0.431 0.503 0.019 0.246 0.224 0.433 0.467 0.433z"></path>
<path d="M4.528 16.506c0.012 0 0.024-0 0.036-0.001 1.313-0.101 2.79-0.396 4.39-0.879 1.627-0.49 3.202-0.417 4.68 0.219 0.238 0.102 0.514-0.008 0.616-0.246s-0.008-0.514-0.246-0.616c-1.686-0.725-3.477-0.811-5.321-0.255-1.535 0.463-2.946 0.746-4.192 0.841-0.258 0.020-0.451 0.245-0.431 0.503 0.019 0.246 0.224 0.433 0.467 0.433z"></path>
<path d="M4.528 14.514c0.012 0 0.024-0 0.036-0.001 1.314-0.101 2.791-0.396 4.39-0.879 1.627-0.49 3.202-0.417 4.68 0.219 0.238 0.102 0.514-0.008 0.616-0.246s-0.008-0.514-0.246-0.616c-1.687-0.725-3.477-0.811-5.321-0.255-1.535 0.463-2.945 0.746-4.192 0.841-0.258 0.020-0.451 0.245-0.431 0.503 0.019 0.246 0.224 0.433 0.467 0.433z"></path>
<path d="M4.528 18.498c0.012 0 0.024-0 0.036-0.001 1.313-0.101 2.791-0.396 4.39-0.879 1.627-0.491 3.202-0.417 4.68 0.219 0.238 0.102 0.514-0.008 0.616-0.246s-0.008-0.514-0.246-0.616c-1.687-0.725-3.477-0.811-5.321-0.255-1.535 0.463-2.945 0.746-4.192 0.841-0.258 0.020-0.451 0.245-0.431 0.503 0.019 0.246 0.224 0.433 0.467 0.433z"></path>
<path d="M30.855 5.832h-0.734v-0.428c0-0.599-0.511-1.074-1.11-1.026-0.692 0.055-2.206 0.059-4.579-0.543-0.251-0.064-0.506 0.088-0.57 0.339s0.088 0.506 0.339 0.57c2.378 0.603 3.969 0.642 4.884 0.569 0.053-0.004 0.098 0.038 0.098 0.091v18.916c-1.776 0.192-4.148-0.317-5.868-0.835-3.841-1.158-6.325 0.831-6.848 1.115v-18.737c0.506-0.475 2.548-2.158 5.586-1.669 0.255 0.042 0.496-0.133 0.537-0.388s-0.133-0.496-0.388-0.537c-3.19-0.514-5.392 1.044-6.205 1.754-1.865-1.617-4.533-2.336-7.315-1.497-2.986 0.9-4.85 0.92-5.695 0.853-0.6-0.048-1.11 0.428-1.11 1.026v0.428h-0.734c-0.631 0-1.145 0.513-1.145 1.145v19.009c0 0.631 0.514 1.145 1.145 1.145h12.145c0.182 0 0.347 0.1 0.421 0.256 0.91 1.925 3.665 1.932 4.578 0 0.074-0.155 0.239-0.256 0.421-0.256h12.145c0.631 0 1.145-0.514 1.145-1.145v-8.89c0-0.259-0.21-0.469-0.469-0.469s-0.469 0.21-0.469 0.469v8.89c0 0.114-0.093 0.207-0.207 0.207h-12.145c-0.543 0-1.041 0.311-1.268 0.793-0.573 1.212-2.308 1.217-2.883 0-0.228-0.482-0.725-0.793-1.268-0.793h-12.145c-0.114 0-0.207-0.093-0.207-0.207v-19.009c0-0.114 0.093-0.207 0.207-0.207h0.734v17.951c0 0.213 0.143 0.399 0.349 0.453 0.089 0.024 2.236 0.563 6.727-0.791 2.173-0.655 4.27-0.253 5.934 0.92 0.643 0.454 1.539 0.484 2.225-0 1.005-0.709 3.112-1.77 5.933-0.92 4.491 1.353 6.638 0.814 6.727 0.791 0.206-0.054 0.349-0.24 0.349-0.453v-17.951h0.734c0.114 0 0.207 0.093 0.207 0.207v7.932c0 0.259 0.21 0.469 0.469 0.469s0.469-0.21 0.469-0.469v-7.932c-0-0.631-0.514-1.145-1.145-1.145zM2.816 5.405c0-0.053 0.043-0.095 0.098-0.091 0.911 0.073 2.907 0.055 6.040-0.89 2.538-0.765 4.963-0.071 6.577 1.44v18.737c-0.269-0.146-2.905-2.303-6.848-1.115-0.253 0.076-0.531 0.155-0.788 0.224-0.003 0.001-0.006 0.002-0.009 0.003-1.509 0.403-3.517 0.776-5.070 0.609 0-1.303 0-18.567 0-18.916z"></path>
</svg>
