<!-- Generated by IcoMoon.io -->
<svg version="1.1" xmlns="http://www.w3.org/2000/svg" width="32" height="32" viewBox="0 0 32 32">
<title>door</title>
<path d="M0.938 32h30.125c0.518 0 0.938-0.42 0.938-0.938v-5.625c0-0.518-0.42-0.938-0.938-0.938h-1v-3.813h1c0.518 0 0.938-0.42 0.938-0.938v-5.688c0-0.518-0.42-0.938-0.938-0.938h-1.031c-0.123-1.832-0.603-3.623-1.412-5.265l0.838-0.484c0.216-0.124 0.373-0.33 0.437-0.57s0.030-0.497-0.095-0.712c-1.4-2.415-3.416-4.431-5.83-5.83-0.215-0.125-0.472-0.159-0.712-0.095s-0.446 0.221-0.57 0.437l-0.484 0.838c-1.922-0.947-4.048-1.444-6.203-1.444s-4.281 0.497-6.203 1.444l-0.484-0.838c-0.124-0.216-0.329-0.373-0.57-0.437s-0.497-0.030-0.712 0.095c-2.415 1.4-4.431 3.416-5.83 5.83-0.125 0.215-0.159 0.471-0.095 0.712s0.221 0.446 0.437 0.57l0.838 0.484c-0.809 1.643-1.29 3.434-1.412 5.265h-1.031c-0.518 0-0.938 0.42-0.938 0.938v5.688c0 0.518 0.42 0.938 0.938 0.938h1v3.813h-1c-0.518 0-0.938 0.42-0.938 0.938v5.625c0 0.518 0.42 0.938 0.938 0.938zM5.688 24.5h-1.875v-3.813h1.875zM24.438 30.125h-16.875v-16.063c0-4.652 3.785-8.438 8.438-8.438s8.438 3.785 8.438 8.438zM30.125 26.375v3.75h-3.813v-3.75zM26.313 24.5v-3.813h1.875v3.813zM30.125 15v3.813h-3.813v-3.813zM26.269 13.125c-0.109-1.199-0.423-2.339-0.908-3.385l1.628-0.94c0.65 1.355 1.044 2.823 1.16 4.325zM23.825 2.384c1.52 1.022 2.831 2.333 3.853 3.853l-3.257 1.88c-0.679-0.959-1.518-1.798-2.477-2.477zM16 1.875c1.826 0 3.627 0.413 5.262 1.198l-0.94 1.628c-1.315-0.61-2.78-0.951-4.322-0.951s-3.007 0.341-4.322 0.951l-0.94-1.628c1.635-0.785 3.436-1.198 5.262-1.198zM8.175 2.384l1.88 3.257c-0.959 0.679-1.798 1.518-2.477 2.477l-3.257-1.88c1.022-1.52 2.333-2.831 3.853-3.853zM5.010 8.8l1.628 0.94c-0.485 1.046-0.799 2.186-0.908 3.385h-1.88c0.116-1.502 0.51-2.97 1.16-4.325zM1.875 18.813v-3.813h3.813v3.813zM1.875 26.375h3.813v3.75h-3.813z"></path>
<path d="M16 7.5c-3.619 0-6.563 2.945-6.563 6.563v13.25c0 0.518 0.42 0.938 0.938 0.938h11.25c0.518 0 0.938-0.42 0.938-0.938v-13.25c0-3.619-2.945-6.563-6.563-6.563zM13.188 26.375h-1.875v-12.313c0-1.53 0.737-2.891 1.875-3.747zM16.938 26.375h-1.875v-16.906c0.303-0.062 0.617-0.094 0.938-0.094s0.634 0.033 0.938 0.094zM20.688 26.375h-1.875v-16.060c1.138 0.856 1.875 2.217 1.875 3.747z"></path>
</svg>
