<!-- Generated by IcoMoon.io -->
<svg version="1.1" xmlns="http://www.w3.org/2000/svg" width="32" height="32" viewBox="0 0 32 32">
<title>fight</title>
<path d="M28.015 4.666c-0.041 0-0.081-0.004-0.122-0.012s-0.080-0.020-0.117-0.036c-0.038-0.016-0.074-0.035-0.108-0.057s-0.066-0.049-0.095-0.078c-0.116-0.116-0.183-0.277-0.183-0.441 0-0.041 0.004-0.082 0.012-0.122s0.020-0.080 0.036-0.117c0.016-0.038 0.035-0.074 0.057-0.108s0.049-0.066 0.078-0.095 0.061-0.055 0.095-0.078c0.034-0.022 0.071-0.042 0.108-0.057s0.077-0.028 0.117-0.036c0.081-0.016 0.164-0.016 0.244 0 0.040 0.008 0.079 0.020 0.117 0.036s0.074 0.035 0.108 0.057c0.034 0.023 0.066 0.049 0.095 0.078s0.055 0.061 0.078 0.095c0.022 0.034 0.042 0.071 0.057 0.108s0.028 0.077 0.036 0.117c0.008 0.041 0.012 0.081 0.012 0.122 0 0.165-0.066 0.325-0.183 0.441-0.029 0.029-0.061 0.055-0.095 0.078s-0.070 0.042-0.107 0.057-0.077 0.028-0.117 0.036c-0.041 0.008-0.081 0.012-0.122 0.012z"></path>
<path d="M4.105 4.666c-0.041 0-0.082-0.004-0.123-0.012s-0.079-0.020-0.117-0.036c-0.037-0.016-0.074-0.035-0.107-0.057s-0.066-0.049-0.095-0.078c-0.030-0.029-0.055-0.061-0.078-0.095s-0.042-0.070-0.058-0.108c-0.016-0.037-0.027-0.077-0.036-0.117s-0.012-0.081-0.012-0.122c0-0.041 0.004-0.081 0.012-0.122s0.020-0.080 0.036-0.117c0.016-0.038 0.035-0.074 0.058-0.108s0.049-0.066 0.078-0.095c0.029-0.029 0.061-0.054 0.095-0.078s0.070-0.042 0.107-0.057c0.038-0.016 0.077-0.028 0.117-0.036 0.081-0.016 0.164-0.016 0.244 0 0.040 0.008 0.079 0.020 0.117 0.036s0.074 0.035 0.108 0.057c0.034 0.023 0.066 0.049 0.095 0.078s0.055 0.061 0.077 0.095c0.022 0.034 0.042 0.071 0.058 0.108s0.027 0.077 0.035 0.117c0.008 0.041 0.013 0.081 0.013 0.122s-0.004 0.082-0.013 0.122c-0.008 0.040-0.020 0.080-0.035 0.117s-0.035 0.074-0.058 0.108c-0.022 0.034-0.049 0.066-0.077 0.095s-0.061 0.055-0.095 0.078c-0.034 0.022-0.071 0.042-0.108 0.057s-0.077 0.028-0.117 0.036c-0.041 0.008-0.081 0.012-0.122 0.012z"></path>
<path d="M31.544 24.987l-0.577-0.577c-0.331-0.332-0.772-0.514-1.241-0.514-0.297 0-0.583 0.073-0.837 0.212l-2.45-2.45 0.753-0.753c0.686-0.686 0.686-1.803 0-2.489l-0.57-0.57c-0.332-0.333-0.774-0.516-1.244-0.516s-0.912 0.183-1.244 0.516l-0.52 0.52-1.917-2.068 10.155-9.224c0.134-0.121 0.208-0.295 0.205-0.475l-0.117-5.868c-0.007-0.335-0.277-0.606-0.612-0.612l-5.866-0.117c-0.183-0.005-0.354 0.071-0.475 0.205l-8.927 9.833-8.922-9.832c-0.121-0.134-0.296-0.209-0.475-0.205l-5.866 0.117c-0.335 0.007-0.606 0.277-0.612 0.612l-0.117 5.868c-0.004 0.18 0.071 0.354 0.205 0.475l10.131 9.196-1.898 2.091-0.518-0.518c-0.331-0.332-0.772-0.514-1.241-0.514s-0.909 0.183-1.241 0.514l-0.577 0.577c-0.684 0.684-0.684 1.798 0 2.482l0.757 0.757-2.45 2.45c-0.254-0.138-0.54-0.212-0.837-0.212-0.469 0-0.91 0.183-1.241 0.514l-0.577 0.577c-0.684 0.684-0.684 1.798 0 2.482l4.016 4.017c0.332 0.332 0.772 0.514 1.241 0.514s0.91-0.183 1.241-0.514l0.577-0.577c0.562-0.562 0.662-1.412 0.301-2.078l2.45-2.451 0.757 0.757c0.332 0.332 0.772 0.514 1.241 0.514s0.91-0.183 1.241-0.514l0.577-0.577c0.684-0.684 0.684-1.797 0-2.481l-0.519-0.519 2.33-2.116 2.385 2.121-0.51 0.51c-0.686 0.686-0.686 1.803 0 2.489l0.57 0.57c0.332 0.333 0.774 0.516 1.244 0.516s0.912-0.183 1.244-0.516l0.753-0.753 2.45 2.451c-0.361 0.665-0.26 1.516 0.302 2.078l0.577 0.577c0.332 0.332 0.772 0.514 1.241 0.514s0.909-0.183 1.241-0.514l4.016-4.017c0.684-0.684 0.684-1.797 0-2.481zM22.73 19.249l-1.268 1.269-2.1-2.1 1.41-1.281zM1.319 6.338l0.1-4.983 4.982-0.1 8.812 9.711-1.571 1.73-7.32-7.322c-0.244-0.244-0.64-0.244-0.884 0s-0.244 0.64 0 0.884l7.363 7.364-1.561 1.72zM25.719 1.256l4.982 0.1 0.1 4.983-17.985 16.336-1.273-1.273 15.139-15.142c0.244-0.244 0.244-0.64 0-0.884s-0.64-0.244-0.884 0l-15.139 15.142-1.273-1.273zM6.767 30.025l-0.577 0.577c-0.095 0.095-0.222 0.148-0.357 0.148s-0.262-0.052-0.357-0.148l-4.016-4.017c-0.197-0.197-0.197-0.517 0-0.714l0.577-0.577c0.095-0.095 0.222-0.148 0.357-0.148s0.261 0.052 0.357 0.148l0.088 0.088c0 0 0 0 0.001 0l3.838 3.839c0 0 0 0 0.001 0l0.088 0.089c0.197 0.197 0.197 0.517 0 0.714zM7.12 27.896l-2.955-2.955 2.399-2.4 2.955 2.955zM13.335 25.676l-0.577 0.577c-0.095 0.095-0.222 0.148-0.357 0.148s-0.262-0.052-0.357-0.148l-6.236-6.237c-0.197-0.197-0.197-0.517 0-0.714l0.577-0.577c0.095-0.095 0.222-0.148 0.357-0.148s0.262 0.052 0.357 0.148l6.236 6.237c0.197 0.197 0.197 0.517 0 0.714zM16.96 20.598l1.475-1.34 2.143 2.143-1.277 1.277zM20.080 26.25c-0.096 0.096-0.224 0.149-0.361 0.149s-0.264-0.053-0.36-0.149l-0.57-0.57c-0.199-0.199-0.199-0.523 0-0.721l6.229-6.23c0.096-0.096 0.224-0.149 0.36-0.149s0.264 0.053 0.361 0.149l0.57 0.57c0.199 0.199 0.199 0.522 0 0.721zM25.555 22.541l2.399 2.4-2.955 2.955-2.399-2.399zM30.66 26.585l-4.016 4.017c-0.095 0.095-0.222 0.148-0.357 0.148s-0.261-0.052-0.357-0.148l-0.577-0.577c-0.197-0.197-0.197-0.517-0-0.714l0.089-0.088c0-0 0-0 0-0.001l3.927-3.928c0.095-0.095 0.222-0.148 0.357-0.148s0.262 0.052 0.357 0.148l0.577 0.577c0.197 0.197 0.197 0.517 0 0.714z"></path>
</svg>
