<!-- Generated by IcoMoon.io -->
<svg version="1.1" xmlns="http://www.w3.org/2000/svg" width="32" height="32" viewBox="0 0 32 32">
<title>knight</title>
<path d="M16 6.158c0.274 0 0.546 0.040 0.808 0.119l8.743 2.623c-0.869-2.801-3.138-5.487-7.387-6.433-0.722-0.16-1.226-0.789-1.226-1.529 0-0.518-0.42-0.937-0.938-0.937s-0.938 0.42-0.938 0.938c0 0.739-0.504 1.368-1.225 1.528-4.254 0.947-6.518 3.638-7.387 6.433l8.741-2.622c0.262-0.079 0.534-0.119 0.808-0.119z"></path>
<path d="M26.311 11.085l-10.042-3.013c-0.176-0.053-0.363-0.053-0.539 0l-10.042 3.012c-0.397 0.119-0.668 0.484-0.668 0.898v8.033c0 0.355 0.201 0.68 0.518 0.838l10.042 5.021c0.132 0.066 0.276 0.099 0.419 0.099s0.287-0.033 0.419-0.099l10.042-5.021c0.318-0.159 0.518-0.483 0.518-0.838v-8.033c-0-0.414-0.272-0.779-0.668-0.898zM10.912 18.008c0 0.518-0.42 0.938-0.938 0.938s-0.938-0.42-0.938-0.938v-3.715c0-0.518 0.42-0.938 0.938-0.938s0.938 0.42 0.938 0.938zM14.929 19.515c0 0.518-0.42 0.938-0.938 0.938s-0.938-0.42-0.938-0.938v-6.427c0-0.518 0.42-0.938 0.938-0.938s0.938 0.42 0.938 0.938zM18.946 19.515c0 0.518-0.42 0.938-0.938 0.938s-0.938-0.42-0.938-0.938v-6.427c0-0.518 0.42-0.938 0.938-0.938s0.938 0.42 0.938 0.938zM22.963 18.008c0 0.518-0.42 0.938-0.938 0.938s-0.938-0.42-0.938-0.938v-3.715c0-0.518 0.42-0.938 0.938-0.938s0.938 0.42 0.938 0.938z"></path>
<path d="M26.604 27.3s-0.753-0.564-1.606-1.205c-0.605-0.454-1.094-1.035-1.441-1.691l-6.299 3.149c-0.389 0.194-0.823 0.297-1.258 0.297s-0.869-0.103-1.258-0.297l-6.299-3.149c-0.347 0.656-0.836 1.238-1.441 1.691l-1.607 1.205c-0.283 0.212-0.423 0.566-0.361 0.914s0.315 0.632 0.654 0.734l10.042 3.012c0.088 0.026 0.179 0.040 0.269 0.040s0.181-0.013 0.269-0.040l10.042-3.012c0.339-0.102 0.592-0.386 0.654-0.734s-0.078-0.702-0.361-0.914z"></path>
</svg>
